<svg xmlns="http://www.w3.org/2000/svg" viewBox="0 0 64 64">
  <rect width="64" height="64" rx="12" fill="#111111"/>
  <path d="M18 42V22h10c6.3 0 10.6 4 10.6 10S34.3 42 28 42H18Zm6.7-5.7H28c2.5 0 4-1.7 4-4.3s-1.5-4.3-4-4.3h-3.3v8.6Z" fill="#f4efe6"/>
  <path d="M43.1 42.5c-4.3 0-7.2-2.5-7.2-6.3h5.6c.1 1.2.8 1.9 1.9 1.9 1 0 1.7-.5 1.7-1.4 0-2.8-8.8-1.7-8.8-8.7 0-3.8 3.2-6.1 7.3-6.1 4.4 0 7.2 2.3 7.4 6.2h-5.7c-.1-1-.7-1.6-1.8-1.6-.9 0-1.5.5-1.5 1.3 0 2.6 8.7 1.9 8.7 8.5 0 3.5-2.8 6.2-7.6 6.2Z" fill="#ff3928"/>
</svg>
